{"title":"Lost S01E24 - AVM (Embedded subtitles)","uid":5043986,"size":312970253,"categoryP":"video","categoryS":"tv_shows","magnet":"?xt=urn:btih:f86292715929cf0511a59a4bede0f6932306343f&amp;dn=Lost+S01E24+-+AVM+%28Embedded+subtitles%29&amp;tr=udp%3A%2F%2Ftracker.openbittorrent.com%3A80&amp;tr=udp%3A%2F%2Fopen.demonii.com%3A1337&amp;tr=udp%3A%2F%2Ftracker.coppersurfer.tk%3A6969&amp;tr=udp%3A%2F%2Fexodus.desync.com%3A6969","seeders":0,"leechers":0,"uploader":"SysProfile","files":1,"time":1249530141,"description":"AVIDMobile - http://www.avidmobile.com.ar (Mobile media)\n\n* The video contains embedded subtitles in Spanish. You can find the same video without the subtitles. Visit http://blog.avidmobile.com.ar.\n\n* El video contiene subtÃƒÂ­tulos incrustados en EspaÃƒÂ±ol. Usted podrÃƒÂ¡ encontrar el mismo video sin los subtÃƒÂ­tulos. Visite http://blog.avidmobile.com.ar.\n\nVideo\nID                               : 1\nFormat                           : MPEG-4 Visual\nFormat profile                   : Advanced Simple@L5\nFormat settings, BVOP            : Yes\nFormat settings, QPel            : No\nFormat settings, GMC             : No warppoints\nFormat settings, Matrix          : Default (H.263)\nCodec ID                         : 20\nDuration                         : 1h 25mn\nBit rate mode                    : Variable\nBit rate                         : 424 Kbps\nMaximum bit rate                 : 1 526 Kbps\nWidth                            : 320 pixels\nHeight                           : 240 pixels\nDisplay aspect ratio             : 4/3\nFrame rate mode                  : Variable\nFrame rate                       : 23.976 fps\nMinimum frame rate               : 23.974 fps\nMaximum frame rate               : 23.981 fps\nResolution                       : 24 bits\nColorimetry                      : 4:2:0\nScan type                        : Progressive\nBits/(Pixel*Frame)               : 0.230\nStream size                      : 258 MiB (86%)\n\nAudio\nID                               : 2\nFormat                           : AAC\nFormat/Info                      : Advanced Audio Codec\nFormat version                   : Version 4\nFormat profile                   : LC\nFormat settings, SBR             : No\nCodec ID                         : 40\nDuration                         : 1h 25mn\nBit rate mode                    : Variable\nBit rate                         : 63.1 Kbps\nMaximum bit rate                 : 114 Kbps\nChannel(s)                       : 2 channels\nChannel positions                : L R\nSampling rate                    : 22.05 KHz\nResolution                       : 16 bits\nStream size                      : 38.4 MiB (13%)\n","torrent":{"xt":"urn:btih:f86292715929cf0511a59a4bede0f6932306343f","amp;dn":"Lost+S01E24+-+AVM+%28Embedded+subtitles%29","amp;tr":["udp%3A%2F%2Ftracker.openbittorrent.com%3A80","udp%3A%2F%2Fopen.demonii.com%3A1337","udp%3A%2F%2Ftracker.coppersurfer.tk%3A6969","udp%3A%2F%2Fexodus.desync.com%3A6969"],"infoHash":"f86292715929cf0511a59a4bede0f6932306343f","infoHashBuffer":{"type":"Buffer","data":[248,98,146,113,89,41,207,5,17,165,154,75,237,224,246,147,35,6,52,63]},"announce":[],"urlList":[]}}